<svg xmlns="http://www.w3.org/2000/svg" width="135" height="15" viewBox="0 0 135 15">
  <defs>
    <style>
      .cls-1 {
        fill: #9737ff;
        fill-rule: evenodd;
      }
    </style>
  </defs>
  <path id="squiggle-2.svg" class="cls-1" d="M886.749,233c6.265,0,9.464,3.3,12.287,6.211,2.638,2.721,4.917,5.071,9.589,5.071s6.952-2.35,9.59-5.071C921.037,236.3,924.236,233,930.5,233s9.464,3.3,12.287,6.211c2.638,2.721,4.916,5.071,9.589,5.071s6.951-2.35,9.589-5.071c2.823-2.911,6.021-6.211,12.287-6.211s9.464,3.3,12.286,6.211c2.638,2.721,4.916,5.071,9.589,5.071a1.859,1.859,0,1,1,0,3.718c-6.265,0-9.464-3.3-12.286-6.211-2.638-2.721-4.917-5.071-9.589-5.071s-6.951,2.35-9.59,5.071C961.841,244.7,958.642,248,952.377,248s-9.464-3.3-12.286-6.211c-2.639-2.721-4.917-5.071-9.59-5.071s-6.951,2.35-9.589,5.071C918.09,244.7,914.891,248,908.625,248s-9.464-3.3-12.286-6.211c-2.639-2.721-4.917-5.071-9.59-5.071s-6.952,2.35-9.59,5.071C874.337,244.7,871.138,248,864.872,248a1.859,1.859,0,1,1,0-3.718c4.673,0,6.952-2.35,9.59-5.071C877.284,236.3,880.483,233,886.749,233Z" transform="translate(-863 -233)"/>
</svg>
