<svg xmlns="http://www.w3.org/2000/svg" width="135" height="15" viewBox="0 0 135 15">
  <defs>
    <style>
      .cls-1 {
        fill: #9737ff;
        fill-rule: evenodd;
      }
    </style>
  </defs>
  <path id="squiggle-1.svg" class="cls-1" d="M974.251,156c-6.265,0-9.464-3.3-12.287-6.211-2.638-2.721-4.917-5.071-9.589-5.071s-6.952,2.35-9.59,5.071C939.963,152.7,936.764,156,930.5,156s-9.464-3.3-12.287-6.211c-2.638-2.721-4.916-5.071-9.589-5.071s-6.951,2.35-9.589,5.071C896.211,152.7,893.013,156,886.747,156s-9.464-3.3-12.286-6.211c-2.638-2.721-4.916-5.071-9.589-5.071a1.859,1.859,0,1,1,0-3.718c6.265,0,9.464,3.3,12.286,6.211,2.638,2.721,4.917,5.071,9.589,5.071s6.951-2.35,9.59-5.071c2.822-2.911,6.021-6.211,12.286-6.211s9.464,3.3,12.286,6.211c2.639,2.721,4.917,5.071,9.59,5.071s6.951-2.35,9.589-5.071C942.91,144.3,946.109,141,952.375,141s9.464,3.3,12.286,6.211c2.639,2.721,4.917,5.071,9.59,5.071s6.952-2.35,9.59-5.071c2.822-2.911,6.021-6.211,12.287-6.211a1.859,1.859,0,1,1,0,3.718c-4.673,0-6.952,2.35-9.59,5.071C983.716,152.7,980.517,156,974.251,156Z" transform="translate(-863 -141)"/>
</svg>
